<svg xmlns="http://www.w3.org/2000/svg" width="140" height="140" viewBox="0 0 140 140">
  <!-- Concentric rings -->
  <circle cx="70" cy="70" r="66" fill="none" stroke="rgba(139,26,26,0.05)" stroke-width="0.7"/>
  <circle cx="70" cy="70" r="54" fill="none" stroke="rgba(201,150,12,0.05)" stroke-width="0.6"/>
  <circle cx="70" cy="70" r="40" fill="none" stroke="rgba(139,26,26,0.05)" stroke-width="0.5"/>
  <circle cx="70" cy="70" r="24" fill="none" stroke="rgba(201,150,12,0.05)" stroke-width="0.5"/>
  <circle cx="70" cy="70" r="10" fill="none" stroke="rgba(139,26,26,0.06)" stroke-width="0.5"/>
  <!-- Centre dot -->
  <circle cx="70" cy="70" r="2.5" fill="rgba(201,150,12,0.15)"/>

  <!-- 8 large petals (lotus) alternating gold/maroon -->
  <g transform="rotate(0 70 70)">
    <path d="M70,4 Q82,37 70,70 Q58,37 70,4" fill="rgba(201,150,12,0.04)" stroke="rgba(201,150,12,0.09)" stroke-width="0.5"/>
  </g>
  <g transform="rotate(45 70 70)">
    <path d="M70,4 Q82,37 70,70 Q58,37 70,4" fill="rgba(139,26,26,0.035)" stroke="rgba(139,26,26,0.07)" stroke-width="0.5"/>
  </g>
  <g transform="rotate(90 70 70)">
    <path d="M70,4 Q82,37 70,70 Q58,37 70,4" fill="rgba(201,150,12,0.04)" stroke="rgba(201,150,12,0.09)" stroke-width="0.5"/>
  </g>
  <g transform="rotate(135 70 70)">
    <path d="M70,4 Q82,37 70,70 Q58,37 70,4" fill="rgba(139,26,26,0.035)" stroke="rgba(139,26,26,0.07)" stroke-width="0.5"/>
  </g>
  <g transform="rotate(180 70 70)">
    <path d="M70,4 Q82,37 70,70 Q58,37 70,4" fill="rgba(201,150,12,0.04)" stroke="rgba(201,150,12,0.09)" stroke-width="0.5"/>
  </g>
  <g transform="rotate(225 70 70)">
    <path d="M70,4 Q82,37 70,70 Q58,37 70,4" fill="rgba(139,26,26,0.035)" stroke="rgba(139,26,26,0.07)" stroke-width="0.5"/>
  </g>
  <g transform="rotate(270 70 70)">
    <path d="M70,4 Q82,37 70,70 Q58,37 70,4" fill="rgba(201,150,12,0.04)" stroke="rgba(201,150,12,0.09)" stroke-width="0.5"/>
  </g>
  <g transform="rotate(315 70 70)">
    <path d="M70,4 Q82,37 70,70 Q58,37 70,4" fill="rgba(139,26,26,0.035)" stroke="rgba(139,26,26,0.07)" stroke-width="0.5"/>
  </g>

  <!-- 8 inner petals (offset 22.5deg, smaller) -->
  <g transform="rotate(22.5 70 70)">
    <path d="M70,30 Q76,50 70,70 Q64,50 70,30" fill="rgba(201,150,12,0.03)" stroke="rgba(201,150,12,0.06)" stroke-width="0.4"/>
  </g>
  <g transform="rotate(67.5 70 70)">
    <path d="M70,30 Q76,50 70,70 Q64,50 70,30" fill="rgba(139,26,26,0.025)" stroke="rgba(139,26,26,0.05)" stroke-width="0.4"/>
  </g>
  <g transform="rotate(112.5 70 70)">
    <path d="M70,30 Q76,50 70,70 Q64,50 70,30" fill="rgba(201,150,12,0.03)" stroke="rgba(201,150,12,0.06)" stroke-width="0.4"/>
  </g>
  <g transform="rotate(157.5 70 70)">
    <path d="M70,30 Q76,50 70,70 Q64,50 70,30" fill="rgba(139,26,26,0.025)" stroke="rgba(139,26,26,0.05)" stroke-width="0.4"/>
  </g>
  <g transform="rotate(202.5 70 70)">
    <path d="M70,30 Q76,50 70,70 Q64,50 70,30" fill="rgba(201,150,12,0.03)" stroke="rgba(201,150,12,0.06)" stroke-width="0.4"/>
  </g>
  <g transform="rotate(247.5 70 70)">
    <path d="M70,30 Q76,50 70,70 Q64,50 70,30" fill="rgba(139,26,26,0.025)" stroke="rgba(139,26,26,0.05)" stroke-width="0.4"/>
  </g>
  <g transform="rotate(292.5 70 70)">
    <path d="M70,30 Q76,50 70,70 Q64,50 70,30" fill="rgba(201,150,12,0.03)" stroke="rgba(201,150,12,0.06)" stroke-width="0.4"/>
  </g>
  <g transform="rotate(337.5 70 70)">
    <path d="M70,30 Q76,50 70,70 Q64,50 70,30" fill="rgba(139,26,26,0.025)" stroke="rgba(139,26,26,0.05)" stroke-width="0.4"/>
  </g>

  <!-- 4 cardinal spoke lines (faint) -->
  <line x1="70" y1="4" x2="70" y2="136" stroke="rgba(139,26,26,0.03)" stroke-width="0.4"/>
  <line x1="4" y1="70" x2="136" y2="70" stroke="rgba(139,26,26,0.03)" stroke-width="0.4"/>
</svg>
